<?xml version="1.0" standalone="no"?>
<!DOCTYPE svg PUBLIC "-//W3C//DTD SVG 20010904//EN"
 "http://www.w3.org/TR/2001/REC-SVG-20010904/DTD/svg10.dtd">
<svg version="1.0" xmlns="http://www.w3.org/2000/svg"
 width="512.000000pt" height="512.000000pt" viewBox="0 0 512.000000 512.000000"
 preserveAspectRatio="xMidYMid meet">

<g transform="translate(0.000000,512.000000) scale(0.100000,-0.100000)"
fill="#000000" stroke="none">
<path d="M1954 5100 c-78 -39 -108 -142 -61 -210 12 -18 35 -43 50 -54 28 -21
38 -21 600 -24 510 -2 577 -1 615 14 118 45 126 215 12 275 -33 18 -69 19
-605 19 -552 0 -571 -1 -611 -20z"/>
<path d="M3680 4778 c-51 -27 -80 -74 -80 -134 0 -58 31 -99 123 -162 l77 -53
-62 -92 c-33 -51 -62 -94 -64 -96 -1 -1 -54 22 -116 52 -188 92 -438 174 -628
206 -205 34 -498 33 -730 -4 -874 -140 -1605 -804 -1825 -1660 -54 -211 -69
-332 -69 -570 -1 -381 65 -667 229 -1000 334 -677 957 -1128 1715 -1241 162
-24 485 -25 640 -1 329 51 632 166 904 344 148 96 227 162 371 307 192 193
316 367 430 601 248 509 294 1114 126 1655 -83 269 -212 514 -391 741 -77 99
-239 263 -333 338 -37 30 -67 58 -67 63 0 11 114 177 122 178 4 0 43 -24 87
-54 82 -56 113 -66 169 -55 71 15 115 70 115 145 0 76 -21 96 -303 292 -146
101 -283 192 -305 202 -52 25 -81 25 -135 -2z m-1118 -1611 l3 -783 25 -37
c13 -20 43 -46 65 -59 l40 -23 779 0 778 0 -6 -95 c-57 -816 -656 -1467 -1456
-1580 -120 -17 -365 -15 -485 4 -554 90 -1016 431 -1261 931 -287 587 -208
1285 204 1797 129 159 329 326 507 423 217 119 514 200 742 204 l63 1 2 -783z"/>
</g>
</svg>
